<svg width="35" height="35" viewBox="0 0 35 35" fill="none" xmlns="http://www.w3.org/2000/svg">
<path d="M34.4529 17.4565C34.4529 8.0667 26.8427 0.456543 17.4529 0.456543C8.06304 0.456543 0.452881 8.0667 0.452881 17.4565C0.452881 26.8464 8.06304 34.4565 17.4529 34.4565C17.5525 34.4565 17.6521 34.4565 17.7517 34.4499V21.2218H14.0994V16.9651H17.7517V13.8308C17.7517 10.1983 19.9697 8.21943 23.2103 8.21943C24.7642 8.21943 26.099 8.33232 26.4841 8.38545V12.1839H24.2529C22.4931 12.1839 22.1478 13.0206 22.1478 14.2491V16.9585H26.3646L25.8134 21.2151H22.1478V33.7991C29.2533 31.7605 34.4529 25.2194 34.4529 17.4565Z" fill="white"/>
</svg>
