<svg width="35" height="35" viewBox="0 0 35 35" fill="none" xmlns="http://www.w3.org/2000/svg">
<path d="M19.6302 17.4571C19.6302 18.8576 18.495 19.9928 17.0945 19.9928C15.6941 19.9928 14.5588 18.8576 14.5588 17.4571C14.5588 16.0566 15.6941 14.9214 17.0945 14.9214C18.495 14.9214 19.6302 16.0566 19.6302 17.4571Z" fill="white"/>
<path d="M23.9574 12.2652C23.8163 11.8829 23.5913 11.5369 23.2989 11.2529C23.0149 10.9605 22.6691 10.7355 22.2866 10.5944C21.9764 10.4739 21.5104 10.3305 20.6521 10.2915C19.7236 10.2491 19.4452 10.24 17.0946 10.24C14.7438 10.24 14.4654 10.2489 13.5371 10.2912C12.6788 10.3305 12.2126 10.4739 11.9026 10.5944C11.5201 10.7355 11.1741 10.9605 10.8904 11.2529C10.598 11.5369 10.3729 11.8827 10.2316 12.2652C10.1111 12.5754 9.96773 13.0416 9.92866 13.8999C9.88632 14.8282 9.8772 15.1066 9.8772 17.4574C9.8772 19.808 9.88632 20.0864 9.92866 21.0149C9.96773 21.8732 10.1111 22.3392 10.2316 22.6494C10.3729 23.0319 10.5977 23.3777 10.8901 23.6617C11.1741 23.9541 11.5199 24.1791 11.9024 24.3202C12.2126 24.4409 12.6788 24.5843 13.5371 24.6234C14.4654 24.6657 14.7436 24.6746 17.0944 24.6746C19.4455 24.6746 19.7239 24.6657 20.6519 24.6234C21.5102 24.5843 21.9764 24.4409 22.2866 24.3202C23.0544 24.024 23.6612 23.4172 23.9574 22.6494C24.0779 22.3392 24.2213 21.8732 24.2606 21.0149C24.3029 20.0864 24.3118 19.808 24.3118 17.4574C24.3118 15.1066 24.3029 14.8282 24.2606 13.8999C24.2215 13.0416 24.0781 12.5754 23.9574 12.2652ZM17.0946 21.9778C14.5978 21.9778 12.5738 19.954 12.5738 17.4572C12.5738 14.9604 14.5978 12.9366 17.0946 12.9366C19.5912 12.9366 21.6152 14.9604 21.6152 17.4572C21.6152 19.954 19.5912 21.9778 17.0946 21.9778ZM21.794 13.8143C21.2105 13.8143 20.7375 13.3413 20.7375 12.7579C20.7375 12.1744 21.2105 11.7014 21.794 11.7014C22.3774 11.7014 22.8504 12.1744 22.8504 12.7579C22.8502 13.3413 22.3774 13.8143 21.794 13.8143Z" fill="white"/>
<path d="M17.0947 0.457031C7.70732 0.457031 0.0947266 8.06963 0.0947266 17.457C0.0947266 26.8444 7.70732 34.457 17.0947 34.457C26.4821 34.457 34.0947 26.8444 34.0947 17.457C34.0947 8.06963 26.4821 0.457031 17.0947 0.457031ZM26.7976 21.4816C26.7504 22.5208 26.5851 23.2302 26.3439 23.8512C25.8367 25.1625 24.8002 26.1991 23.4889 26.7062C22.8682 26.9474 22.1585 27.1124 21.1196 27.1599C20.0786 27.2073 19.746 27.2188 17.095 27.2188C14.4437 27.2188 14.1114 27.2073 13.0701 27.1599C12.0312 27.1124 11.3215 26.9474 10.7008 26.7062C10.0492 26.461 9.4593 26.0769 8.97163 25.5801C8.47514 25.0927 8.09097 24.5026 7.84584 23.8512C7.6046 23.2305 7.43936 22.5208 7.39215 21.4819C7.34416 20.4406 7.33301 20.1081 7.33301 17.457C7.33301 14.806 7.34416 14.4734 7.39189 13.4324C7.4391 12.3933 7.60408 11.6838 7.84532 11.0628C8.09045 10.4115 8.47488 9.82135 8.97163 9.33394C9.45905 8.83719 10.0492 8.45302 10.7005 8.20789C11.3215 7.96664 12.031 7.80167 13.0701 7.7542C14.1111 7.70673 14.4437 7.69531 17.0947 7.69531C19.7458 7.69531 20.0783 7.70673 21.1193 7.75446C22.1585 7.80167 22.8679 7.96664 23.4889 8.20763C24.1403 8.45276 24.7304 8.83719 25.2181 9.33394C25.7146 9.82161 26.099 10.4115 26.3439 11.0628C26.5854 11.6838 26.7504 12.3933 26.7978 13.4324C26.8453 14.4734 26.8564 14.806 26.8564 17.457C26.8564 20.1081 26.8453 20.4406 26.7976 21.4816Z" fill="white"/>
</svg>
