<svg width="44" height="28" viewBox="0 0 44 28" fill="none" xmlns="http://www.w3.org/2000/svg">
<rect x="0.741699" y="0.520996" width="42.43" height="27.1552" rx="3" fill="#EDEDF0"/>
<path d="M25.6592 20.7724H18.2346V7.4292H25.6592V20.7724Z" fill="#FF5F00"/>
<path d="M18.7105 14.0995C18.7105 11.3927 19.9779 8.98163 21.9514 7.42783C20.5082 6.29162 18.6868 5.61345 16.7073 5.61345C12.0211 5.61345 8.22241 9.4127 8.22241 14.0995C8.22241 18.7862 12.0211 22.5854 16.7073 22.5854C18.6868 22.5854 20.5082 21.9073 21.9514 20.7711C19.9779 19.2173 18.7105 16.8062 18.7105 14.0995Z" fill="#EB001B"/>
<path d="M35.6729 14.0995C35.6729 18.7862 31.8742 22.5854 27.188 22.5854C25.2085 22.5854 23.3871 21.9073 21.9434 20.7711C23.9174 19.2173 25.1848 16.8062 25.1848 14.0995C25.1848 11.3927 23.9174 8.98163 21.9434 7.42783C23.3871 6.29162 25.2085 5.61345 27.188 5.61345C31.8742 5.61345 35.6729 9.4127 35.6729 14.0995Z" fill="#F79E1B"/>
<path d="M14.607 14.1533C14.607 13.7826 14.8499 13.4781 15.2469 13.4781C15.6261 13.4781 15.8821 13.7695 15.8821 14.1533C15.8821 14.5371 15.6261 14.8285 15.2469 14.8285C14.8499 14.8285 14.607 14.524 14.607 14.1533ZM16.3144 14.1533V13.0989H15.8559V13.3549C15.7104 13.165 15.4898 13.0458 15.1898 13.0458C14.5984 13.0458 14.1349 13.5094 14.1349 14.1533C14.1349 14.7977 14.5984 15.2607 15.1898 15.2607C15.4898 15.2607 15.7104 15.1416 15.8559 14.9517V15.2077H16.3144V14.1533ZM31.8097 14.1533C31.8097 13.7826 32.0526 13.4781 32.4495 13.4781C32.8293 13.4781 33.0848 13.7695 33.0848 14.1533C33.0848 14.5371 32.8293 14.8285 32.4495 14.8285C32.0526 14.8285 31.8097 14.524 31.8097 14.1533ZM33.5176 14.1533V12.252H33.0585V13.3549C32.9131 13.165 32.6924 13.0458 32.3924 13.0458C31.8011 13.0458 31.3375 13.5094 31.3375 14.1533C31.3375 14.7977 31.8011 15.2607 32.3924 15.2607C32.6924 15.2607 32.9131 15.1416 33.0585 14.9517V15.2077H33.5176V14.1533ZM22.0062 13.4564C22.3016 13.4564 22.4915 13.6417 22.54 13.968H21.4457C21.4946 13.6634 21.6795 13.4564 22.0062 13.4564ZM22.0153 13.0458C21.3972 13.0458 20.9649 13.4958 20.9649 14.1533C20.9649 14.8239 21.4149 15.2607 22.0461 15.2607C22.3637 15.2607 22.6546 15.1815 22.9107 14.9653L22.6859 14.6255C22.5092 14.7664 22.284 14.8461 22.0724 14.8461C21.7769 14.8461 21.5078 14.7093 21.4416 14.3295H23.0076C23.0122 14.2725 23.0167 14.2149 23.0167 14.1533C23.0122 13.4958 22.6061 13.0458 22.0153 13.0458ZM27.5521 14.1533C27.5521 13.7826 27.795 13.4781 28.1919 13.4781C28.5711 13.4781 28.8272 13.7695 28.8272 14.1533C28.8272 14.5371 28.5711 14.8285 28.1919 14.8285C27.795 14.8285 27.5521 14.524 27.5521 14.1533ZM29.2594 14.1533V13.0989H28.8009V13.3549C28.655 13.165 28.4348 13.0458 28.1348 13.0458C27.5435 13.0458 27.0799 13.5094 27.0799 14.1533C27.0799 14.7977 27.5435 15.2607 28.1348 15.2607C28.4348 15.2607 28.655 15.1416 28.8009 14.9517V15.2077H29.2594V14.1533ZM24.9624 14.1533C24.9624 14.7931 25.4079 15.2607 26.0876 15.2607C26.4052 15.2607 26.6168 15.19 26.8461 15.0093L26.6259 14.6386C26.4537 14.7623 26.2729 14.8285 26.0739 14.8285C25.7078 14.8239 25.4387 14.5593 25.4387 14.1533C25.4387 13.7473 25.7078 13.4827 26.0739 13.4781C26.2729 13.4781 26.4537 13.5443 26.6259 13.668L26.8461 13.2973C26.6168 13.1165 26.4052 13.0458 26.0876 13.0458C25.4079 13.0458 24.9624 13.5135 24.9624 14.1533ZM30.8744 13.0458C30.6098 13.0458 30.4376 13.1696 30.3184 13.3549V13.0989H29.8639V15.2077H30.323V14.0255C30.323 13.6766 30.4729 13.4827 30.7729 13.4827C30.8658 13.4827 30.9628 13.4958 31.0597 13.5357L31.2011 13.1034C31.0996 13.0635 30.9673 13.0458 30.8744 13.0458ZM18.5823 13.2665C18.3617 13.1211 18.0577 13.0458 17.7223 13.0458C17.1881 13.0458 16.8442 13.3019 16.8442 13.721C16.8442 14.0649 17.1002 14.277 17.5718 14.3432L17.7885 14.374C18.04 14.4093 18.1587 14.4755 18.1587 14.5947C18.1587 14.7578 17.991 14.8507 17.6779 14.8507C17.3603 14.8507 17.131 14.7492 16.9765 14.63L16.7603 14.987C17.0118 15.1724 17.3295 15.2607 17.6734 15.2607C18.2824 15.2607 18.6354 14.9739 18.6354 14.5724C18.6354 14.2018 18.3576 14.0079 17.8986 13.9417L17.6824 13.9104C17.484 13.8841 17.3249 13.8447 17.3249 13.7033C17.3249 13.5488 17.4749 13.4564 17.7264 13.4564C17.9955 13.4564 18.2561 13.5579 18.3839 13.6372L18.5823 13.2665ZM24.4989 13.0458C24.2342 13.0458 24.062 13.1696 23.9434 13.3549V13.0989H23.4889V15.2077H23.9474V14.0255C23.9474 13.6766 24.0974 13.4827 24.3974 13.4827C24.4903 13.4827 24.5872 13.4958 24.6842 13.5357L24.8256 13.1034C24.7241 13.0635 24.5918 13.0458 24.4989 13.0458ZM20.5857 13.0989H19.8357V12.459H19.3722V13.0989H18.9444V13.518H19.3722V14.48C19.3722 14.9694 19.562 15.2607 20.1044 15.2607C20.3034 15.2607 20.5326 15.1991 20.6781 15.0976L20.5458 14.7047C20.4089 14.784 20.2589 14.8239 20.1397 14.8239C19.9105 14.8239 19.8357 14.6825 19.8357 14.4709V13.518H20.5857V13.0989ZM13.7293 15.2077V13.8841C13.7293 13.3857 13.4117 13.0504 12.8996 13.0458C12.6305 13.0413 12.3527 13.1251 12.1583 13.421C12.0129 13.1872 11.7836 13.0458 11.4614 13.0458C11.2362 13.0458 11.016 13.112 10.8438 13.3589V13.0989H10.3848V15.2077H10.8478V14.0387C10.8478 13.6725 11.0509 13.4781 11.3645 13.4781C11.669 13.4781 11.823 13.6766 11.823 14.0341V15.2077H12.2866V14.0387C12.2866 13.6725 12.4982 13.4781 12.8027 13.4781C13.1158 13.4781 13.2658 13.6766 13.2658 14.0341V15.2077H13.7293Z" fill="white"/>
</svg>
