<svg width="44" height="28" viewBox="0 0 44 28" fill="none" xmlns="http://www.w3.org/2000/svg">
<rect x="0.803711" y="0.520996" width="42.43" height="27.1552" rx="3" fill="#EDEDF0"/>
<path d="M19.8688 18.7954H17.2566L18.8905 9.43066H21.5025L19.8688 18.7954Z" fill="#00579F"/>
<path d="M29.3381 9.65944C28.8229 9.46995 28.0057 9.26074 26.9952 9.26074C24.4155 9.26074 22.599 10.5359 22.5878 12.3589C22.5664 13.704 23.8884 14.451 24.8772 14.8995C25.8878 15.3578 26.2314 15.6569 26.2314 16.0654C26.2211 16.6928 25.4147 16.982 24.6627 16.982C23.6197 16.982 23.0609 16.8329 22.2117 16.4838L21.8677 16.3342L21.5022 18.4364C22.1149 18.6951 23.2436 18.9247 24.4155 18.9348C27.1564 18.9348 28.9409 17.6794 28.962 15.7366C28.9724 14.6706 28.2744 13.8537 26.7693 13.1862C25.8557 12.7577 25.2962 12.4688 25.2962 12.0304C25.3069 11.6318 25.7694 11.2236 26.8008 11.2236C27.65 11.2036 28.2739 11.3928 28.7466 11.5822L28.9829 11.6816L29.3381 9.65944Z" fill="#00579F"/>
<path d="M32.8098 15.4778C33.025 14.9398 33.8528 12.8576 33.8528 12.8576C33.8419 12.8776 34.0674 12.3097 34.1964 11.9611L34.379 12.768C34.379 12.768 34.8737 15.0096 34.9811 15.4778C34.5728 15.4778 33.3258 15.4778 32.8098 15.4778ZM36.0343 9.43066H34.0137C33.3906 9.43066 32.9173 9.59989 32.6484 10.2077L28.7683 18.7953H31.5092C31.5092 18.7953 31.9605 17.6394 32.0575 17.3905C32.3582 17.3905 35.0245 17.3905 35.4113 17.3905C35.4863 17.7193 35.723 18.7953 35.723 18.7953H38.1417L36.0343 9.43066Z" fill="#00579F"/>
<path d="M15.0743 9.43066L12.5161 15.8165L12.2366 14.5214C11.7636 13.027 10.2803 11.4033 8.625 10.596L10.9682 18.7855H13.7306L17.8365 9.43066H15.0743Z" fill="#00579F"/>
<path d="M10.1408 9.43066H5.93802L5.89502 9.61988C9.17347 10.397 11.3447 12.2702 12.2368 14.5218L11.3231 10.2179C11.1727 9.61975 10.7105 9.45039 10.1408 9.43066Z" fill="#FAA61A"/>
</svg>
