<svg width="23" height="21" viewBox="0 0 23 21" fill="none" xmlns="http://www.w3.org/2000/svg">
<path d="M11.1896 19.2271L11.1898 19.2273L11.2331 19.2706C11.2421 19.2616 11.2506 19.253 11.2588 19.2448C11.2642 19.2394 11.2694 19.2342 11.2744 19.2291L11.2764 19.2271C13.4047 17.1003 15.0183 15.5994 16.435 14.2816L16.452 14.2658L16.4522 14.2656L16.558 14.1671C16.9461 13.8059 17.3218 13.4562 17.6939 13.1067C19.2399 11.6506 20.5331 10.3283 21.1084 8.83254L11.1896 19.2271ZM11.1896 19.2271C9.05875 17.098 7.44488 15.5969 6.02707 14.2781M11.1896 19.2271L6.02707 14.2781M11.2498 20.0785C11.4172 20.0743 11.5761 20.0022 11.6891 19.8784L11.3295 19.367L11.3316 19.3691L11.2498 19.4509V19.4737V19.4775V20.0785ZM11.2498 20.0785H11.2351C11.0729 20.0785 10.917 20.0142 10.8013 19.8994L11.2345 19.4662L11.2351 19.4928L11.2498 20.0785ZM1.88441 3.67681L1.88433 3.67693C0.869362 5.15353 0.663515 7.02384 1.35802 8.83336L1.88441 3.67681ZM1.88441 3.67681C2.89405 2.20734 4.56264 1.32999 6.34848 1.32999C7.8076 1.32999 9.28323 1.90793 10.6155 3.06091L10.7076 3.15126L11.2359 3.66931M1.88441 3.67681L11.2359 3.66931M11.2359 3.66931L11.7611 3.14807M11.2359 3.66931L11.7611 3.14807M11.7611 3.14807L11.8239 3.08574C13.1857 1.9062 14.6607 1.32999 16.1176 1.32999C17.9031 1.32999 19.5717 2.20731 20.5817 3.67688L20.5817 3.67693M11.7611 3.14807L20.5817 3.67693M20.5817 3.67693C21.5967 5.1535 21.8025 7.02427 21.1085 8.8324L20.5817 3.67693ZM6.02707 14.2781L6.01691 14.2687M6.02707 14.2781L6.01691 14.2687M6.01691 14.2687C5.59015 13.8716 5.17918 13.4888 4.7733 13.1075C3.22703 11.652 1.93376 10.3303 1.35806 8.83348L6.01691 14.2687Z" stroke="#4C5228" stroke-width="1.5"/>
</svg>
