<svg width="23" height="25" viewBox="0 0 23 25" fill="none" xmlns="http://www.w3.org/2000/svg">
<path d="M22.0546 23.7999L20.2506 6.99229C20.2205 6.72168 19.98 6.51121 19.7093 6.51121H16.3719V5.48892C16.3719 2.60245 14.0266 0.257202 11.1402 0.257202C8.25369 0.257202 5.90844 2.60245 5.90844 5.48892V6.51121H2.48076C2.21015 6.51121 1.96961 6.72168 1.93955 6.99229L0.135507 23.7999C0.10544 23.9503 0.165574 24.1006 0.255776 24.2209C0.345978 24.3411 0.496315 24.4013 0.646652 24.4013H21.5435C21.6938 24.4013 21.8441 24.3411 21.9343 24.2209C22.0245 24.1006 22.0847 23.9503 22.0546 23.7999ZM15.8307 9.54801C16.1013 9.54801 16.3117 9.75848 16.3117 10.0291C16.3117 10.2997 16.1013 10.5102 15.8307 10.5102C15.5601 10.5102 15.3496 10.2997 15.3496 10.0291C15.3496 9.75848 15.5601 9.54801 15.8307 9.54801ZM6.99086 5.48892C6.99086 3.2038 8.85504 1.33963 11.1402 1.33963C13.4253 1.33963 15.2894 3.2038 15.2894 5.48892V6.51121H6.99086V5.48892ZM6.44965 9.54801C6.72026 9.54801 6.93073 9.75848 6.93073 10.0291C6.93073 10.2997 6.72026 10.5102 6.44965 10.5102C6.17904 10.5102 5.96857 10.2997 5.96857 10.0291C5.96857 9.75848 6.17904 9.54801 6.44965 9.54801ZM1.27807 23.2888L2.96184 7.56357H5.90844V8.55579C5.30709 8.76626 4.88615 9.33754 4.88615 9.99902C4.88615 10.8409 5.5777 11.5325 6.41958 11.5325C7.26147 11.5325 7.95302 10.8409 7.95302 9.99902C7.95302 9.33754 7.53207 8.76626 6.93073 8.55579V7.56357H15.2293V8.55579C14.628 8.76626 14.207 9.33754 14.207 9.99902C14.207 10.8409 14.8986 11.5325 15.7405 11.5325C16.5823 11.5325 17.2739 10.8409 17.2739 9.99902C17.2739 9.33754 16.853 8.76626 16.2516 8.55579V7.56357H19.3185L21.0022 23.2888H1.27807Z" fill="#4C5228"/>
</svg>
